# xmcd
#
# Track frame offsets: 
#        150
#        27719
#        48286
#        66432
#        87473
#        104099
#        141771
#        150947
#        173597
#        196186
#        213787
#        244554
#
# Disc length: 3546 seconds
#
# Revision: 0
# Processed by: cddbd v1.5.2PL0 Copyright (c) Steve Scherf et al.
# Submitted via: ExactAudioCopyFreeDBPlugin 1.0
#
DISCID=a00dd80c
DTITLE=Aaron Griffin and Mojo Rising - Mojo Rising
DYEAR=2012
DGENRE=Blues
TTITLE0=Phone Booth
TTITLE1=Cold Women With Warm Hearts
TTITLE2=Killing Floor
TTITLE3=Big Legged Woman
TTITLE4=Too Tired
TTITLE5=Stranded in St. Louis
TTITLE6=Walk Don't Run
TTITLE7=Walkin' the Dog
TTITLE8=The Stumble
TTITLE9=Crosscut Saw
TTITLE10=Texas Flood
TTITLE11=Goin' to Mississippi
EXTD=
EXTT0=
EXTT1=
EXTT2=
EXTT3=
EXTT4=
EXTT5=
EXTT6=
EXTT7=
EXTT8=
EXTT9=
EXTT10=
EXTT11=
PLAYORDER=
